<svg xmlns="http://www.w3.org/2000/svg" xmlns:xlink="http://www.w3.org/1999/xlink" width="58.417" height="58.854" viewBox="0 0 58.417 58.854">
  <defs>
    <linearGradient id="linear-gradient" x1="0.5" x2="1.565" y2="1.959" gradientUnits="objectBoundingBox">
      <stop offset="0" stop-color="#5e2572"/>
      <stop offset="1" stop-color="#731893"/>
    </linearGradient>
  </defs>
  <g id="Group_1" data-name="Group 1" transform="translate(-13.999 -8)">
    <path id="Path_1" data-name="Path 1" d="M40,32.278V44.4H68.568s1.742-6.286-.522-12.121C68.284,32.26,40,32.278,40,32.278Z" transform="translate(3.209 -1.877)" fill="url(#linear-gradient)"/>
    <path id="Subtraction_1" data-name="Subtraction 1" d="M29.136,58.854h0a27.245,27.245,0,0,1-18.579-7.082A39.867,39.867,0,0,1,2.6,41.66c-.139-.239-.259-.444-.361-.613A14.185,14.185,0,0,1,.866,37.368a30.688,30.688,0,0,1-.812-5.523A27.136,27.136,0,0,1,2.237,18.957,39.314,39.314,0,0,1,8.294,9.733a26.223,26.223,0,0,1,3.165-3.089A24.563,24.563,0,0,1,16.28,3.322a28.287,28.287,0,0,1,5.567-2.284A25.911,25.911,0,0,1,32.75.257a30.31,30.31,0,0,1,8.688,2.587,31.086,31.086,0,0,1,6.97,4.525,31.829,31.829,0,0,1,8.566,11.587c-.025,0-1.449,0-3.9,0H43.844a18.668,18.668,0,0,0-6.407-5.425A18.5,18.5,0,1,0,21.8,47.046a18.511,18.511,0,0,0,23.908-9.091H46.1c4.563,0,11.528-.008,11.6-.008v.007a30.579,30.579,0,0,1-4.945,9.516,28.626,28.626,0,0,1-7.634,7.013A29.187,29.187,0,0,1,32.75,58.651,33.169,33.169,0,0,1,29.136,58.854Z" transform="translate(14 8)" fill="#5e2572"/>
  </g>
</svg>
